<svg width="214" height="142" viewBox="0 0 214 142" fill="none" xmlns="http://www.w3.org/2000/svg">
<line x1="126.5" x2="126.5" y2="139" stroke="#EBC8B4"/>
<path d="M4.864 27.32L4.992 25.4H21.888L52.48 90.296L82.56 25.4H99.456C99.456 25.5707 99.4987 25.8693 99.584 26.296C99.6693 26.7227 99.6693 27.064 99.584 27.32L92.8 28.088C91.9467 28.1733 91.4347 28.728 91.264 29.752V112.568L100.736 113.08C100.736 113.165 100.693 113.805 100.608 115L74.88 115.128L75.008 113.336L81.664 112.44C82.5173 112.355 83.0293 111.843 83.2 110.904V30.008L54.016 93.112L51.456 98.232H48.512L16.128 29.88V112.312L30.72 113.08C30.72 113.165 30.6773 113.805 30.592 115L4.864 115.128L4.992 113.336L11.648 112.44C12.5013 112.355 13.0133 111.8 13.184 110.776V29.752C13.0133 28.728 12.5013 28.1733 11.648 28.088L4.864 27.32Z" fill="#EBC8B4"/>
<path d="M176.464 115.568C182.779 115.568 188.325 113.733 193.104 110.064C197.883 106.309 200.272 100.635 200.272 93.04C200.272 89.6267 199.419 86.7253 197.712 84.336C196.091 81.8613 193.915 79.984 191.184 78.704C188.453 77.3387 185.467 76.1867 182.224 75.248C178.981 74.224 175.739 73.1573 172.496 72.048C169.253 70.9387 166.267 69.616 163.536 68.08C160.805 66.544 158.587 64.368 156.88 61.552C155.259 58.736 154.448 55.3653 154.448 51.44C154.448 44.6133 156.795 39.024 161.488 34.672C166.181 30.32 172.453 28.144 180.304 28.144C188.155 28.144 195.664 29.04 202.832 30.832L204.24 46.832L201.808 47.856L200.528 37.744C194.213 33.0507 188.283 30.704 182.736 30.704C177.189 30.704 172.539 32.4107 168.784 35.824C165.029 39.152 163.152 44.1867 163.152 50.928C163.152 54.8533 164.731 57.968 167.888 60.272C171.045 62.576 174.843 64.368 179.28 65.648C183.803 66.928 188.283 68.3787 192.72 70C197.243 71.6213 201.083 74.352 204.24 78.192C207.397 82.032 208.976 87.024 208.976 93.168C208.976 101.445 206.032 107.675 200.144 111.856C194.256 116.037 186.491 118.128 176.848 118.128C167.205 118.128 158.843 115.525 151.76 110.32L151.888 96.752L154.32 96.112L154.576 103.408C156.88 106.651 160.037 109.509 164.048 111.984C168.059 114.373 172.197 115.568 176.464 115.568Z" fill="#EBC8B4"/>
</svg>
